<?xml version="1.0" encoding="UTF-8"?>
<!--Generator: Apple Native CoreSVG 149-->
<!DOCTYPE svg
PUBLIC "-//W3C//DTD SVG 1.1//EN"
       "http://www.w3.org/Graphics/SVG/1.1/DTD/svg11.dtd">
<svg version="1.1" xmlns="http://www.w3.org/2000/svg" xmlns:xlink="http://www.w3.org/1999/xlink" width="3300" height="2200">
 <!--glyph: "uni100212.medium", point size: 100.000000, font version: "Version 16.0d18e1", template writer version: "8"-->
 <g id="Notes">
  <rect height="2200" id="artboard" style="fill:white;opacity:1" width="3300" x="0" y="0"/>
  <line id="" style="fill:none;stroke:black;opacity:1;stroke-width:0.5;" x1="263" x2="3036" y1="292" y2="292"/>
  <text style="stroke:none;fill:black;font-family:-apple-system,&quot;SF Pro Display&quot;,&quot;SF Pro Text&quot;,Helvetica,sans-serif;font-weight:bold;" transform="matrix(1 0 0 1 263 322)">Weight/Scale Variations</text>
  <text style="stroke:none;fill:black;font-family:-apple-system,&quot;SF Pro Display&quot;,&quot;SF Pro Text&quot;,Helvetica,sans-serif;text-anchor:middle;" transform="matrix(1 0 0 1 559.711 322)">Ultralight</text>
  <text style="stroke:none;fill:black;font-family:-apple-system,&quot;SF Pro Display&quot;,&quot;SF Pro Text&quot;,Helvetica,sans-serif;text-anchor:middle;" transform="matrix(1 0 0 1 856.422 322)">Thin</text>
  <text style="stroke:none;fill:black;font-family:-apple-system,&quot;SF Pro Display&quot;,&quot;SF Pro Text&quot;,Helvetica,sans-serif;text-anchor:middle;" transform="matrix(1 0 0 1 1153.13 322)">Light</text>
  <text style="stroke:none;fill:black;font-family:-apple-system,&quot;SF Pro Display&quot;,&quot;SF Pro Text&quot;,Helvetica,sans-serif;text-anchor:middle;" transform="matrix(1 0 0 1 1449.84 322)">Regular</text>
  <text style="stroke:none;fill:black;font-family:-apple-system,&quot;SF Pro Display&quot;,&quot;SF Pro Text&quot;,Helvetica,sans-serif;text-anchor:middle;" transform="matrix(1 0 0 1 1746.56 322)">Medium</text>
  <text style="stroke:none;fill:black;font-family:-apple-system,&quot;SF Pro Display&quot;,&quot;SF Pro Text&quot;,Helvetica,sans-serif;text-anchor:middle;" transform="matrix(1 0 0 1 2043.27 322)">Semibold</text>
  <text style="stroke:none;fill:black;font-family:-apple-system,&quot;SF Pro Display&quot;,&quot;SF Pro Text&quot;,Helvetica,sans-serif;text-anchor:middle;" transform="matrix(1 0 0 1 2339.98 322)">Bold</text>
  <text style="stroke:none;fill:black;font-family:-apple-system,&quot;SF Pro Display&quot;,&quot;SF Pro Text&quot;,Helvetica,sans-serif;text-anchor:middle;" transform="matrix(1 0 0 1 2636.69 322)">Heavy</text>
  <text style="stroke:none;fill:black;font-family:-apple-system,&quot;SF Pro Display&quot;,&quot;SF Pro Text&quot;,Helvetica,sans-serif;text-anchor:middle;" transform="matrix(1 0 0 1 2933.4 322)">Black</text>
  <line id="" style="fill:none;stroke:black;opacity:1;stroke-width:0.5;" x1="263" x2="3036" y1="1903" y2="1903"/>
  <g id="" transform="matrix(1 0 0 1 263 1933)">
   <path d="M9.24805 0.830078C13.5547 0.830078 17.1387-2.74414 17.1387-7.05078C17.1387-11.3574 13.5449-14.9316 9.23828-14.9316C4.94141-14.9316 1.36719-11.3574 1.36719-7.05078C1.36719-2.74414 4.95117 0.830078 9.24805 0.830078ZM9.24805-0.654297C5.70312-0.654297 2.87109-3.49609 2.87109-7.05078C2.87109-10.6055 5.69336-13.4473 9.23828-13.4473C12.793-13.4473 15.6348-10.6055 15.6445-7.05078C15.6543-3.49609 12.8027-0.654297 9.24805-0.654297ZM6.39648-6.31836L8.50586-6.31836L8.50586-4.19922C8.50586-3.75977 8.79883-3.45703 9.22852-3.45703C9.67773-3.45703 9.9707-3.75977 9.9707-4.19922L9.9707-6.31836L12.0996-6.31836C12.5391-6.31836 12.8418-6.61133 12.8418-7.04102C12.8418-7.48047 12.5391-7.7832 12.0996-7.7832L9.9707-7.7832L9.9707-9.89258C9.9707-10.3418 9.67773-10.6445 9.22852-10.6445C8.79883-10.6445 8.50586-10.3418 8.50586-9.89258L8.50586-7.7832L6.39648-7.7832C5.94727-7.7832 5.64453-7.48047 5.64453-7.04102C5.64453-6.61133 5.94727-6.31836 6.39648-6.31836Z"/>
  </g>
  <g id="" transform="matrix(1 0 0 1 281.506 1933)">
   <path d="M11.709 2.91016C17.1582 2.91016 21.6699-1.61133 21.6699-7.05078C21.6699-12.5 17.1484-17.0117 11.6992-17.0117C6.25977-17.0117 1.74805-12.5 1.74805-7.05078C1.74805-1.61133 6.26953 2.91016 11.709 2.91016ZM11.709 1.25C7.09961 1.25 3.41797-2.44141 3.41797-7.05078C3.41797-11.6602 7.08984-15.3516 11.6992-15.3516C16.3086-15.3516 20-11.6602 20.0098-7.05078C20.0195-2.44141 16.3184 1.25 11.709 1.25ZM7.98828-6.23047L10.8789-6.23047L10.8789-3.32031C10.8789-2.83203 11.2109-2.5 11.6895-2.5C12.1777-2.5 12.5195-2.83203 12.5195-3.32031L12.5195-6.23047L15.4297-6.23047C15.918-6.23047 16.25-6.5625 16.25-7.04102C16.25-7.5293 15.918-7.87109 15.4297-7.87109L12.5195-7.87109L12.5195-10.7617C12.5195-11.2695 12.1777-11.6016 11.6895-11.6016C11.2109-11.6016 10.8789-11.2598 10.8789-10.7617L10.8789-7.87109L7.98828-7.87109C7.48047-7.87109 7.14844-7.5293 7.14844-7.04102C7.14844-6.5625 7.49023-6.23047 7.98828-6.23047Z"/>
  </g>
  <g id="" transform="matrix(1 0 0 1 304.924 1933)">
   <path d="M14.9707 5.66406C21.9336 5.66406 27.6953-0.0976562 27.6953-7.05078C27.6953-14.0137 21.9238-19.7754 14.9609-19.7754C8.00781-19.7754 2.25586-14.0137 2.25586-7.05078C2.25586-0.0976562 8.01758 5.66406 14.9707 5.66406ZM14.9707 3.84766C8.93555 3.84766 4.08203-1.01562 4.08203-7.05078C4.08203-13.0957 8.92578-17.9492 14.9609-17.9492C21.0059-17.9492 25.8594-13.0957 25.8691-7.05078C25.8789-1.01562 21.0156 3.84766 14.9707 3.84766ZM10.0586-6.14258L14.0625-6.14258L14.0625-2.12891C14.0625-1.5918 14.4336-1.2207 14.9512-1.2207C15.4883-1.2207 15.8594-1.5918 15.8594-2.12891L15.8594-6.14258L19.8828-6.14258C20.4102-6.14258 20.791-6.51367 20.791-7.03125C20.791-7.56836 20.4199-7.94922 19.8828-7.94922L15.8594-7.94922L15.8594-11.9531C15.8594-12.5098 15.4883-12.8809 14.9512-12.8809C14.4336-12.8809 14.0625-12.5 14.0625-11.9531L14.0625-7.94922L10.0586-7.94922C9.50195-7.94922 9.13086-7.56836 9.13086-7.03125C9.13086-6.51367 9.51172-6.14258 10.0586-6.14258Z"/>
  </g>
  <text style="stroke:none;fill:black;font-family:-apple-system,&quot;SF Pro Display&quot;,&quot;SF Pro Text&quot;,Helvetica,sans-serif;font-weight:bold;" transform="matrix(1 0 0 1 263 1953)">Design Variations</text>
  <text style="stroke:none;fill:black;font-family:-apple-system,&quot;SF Pro Display&quot;,&quot;SF Pro Text&quot;,Helvetica,sans-serif;" transform="matrix(1 0 0 1 263 1971)">Symbols are supported in up to nine weights and three scales.</text>
  <text style="stroke:none;fill:black;font-family:-apple-system,&quot;SF Pro Display&quot;,&quot;SF Pro Text&quot;,Helvetica,sans-serif;" transform="matrix(1 0 0 1 263 1989)">For optimal layout with text and other symbols, vertically align</text>
  <text style="stroke:none;fill:black;font-family:-apple-system,&quot;SF Pro Display&quot;,&quot;SF Pro Text&quot;,Helvetica,sans-serif;" transform="matrix(1 0 0 1 263 2007)">symbols with the adjacent text.</text>
  <line id="" style="fill:none;stroke:#00AEEF;stroke-width:0.5;opacity:1.0;" x1="776" x2="776" y1="1919" y2="1933"/>
  <g id="" transform="matrix(1 0 0 1 776 1933)">
   <path d="M3.31055 0.126953C3.82812 0.126953 4.08203-0.0683594 4.26758-0.605469L5.52734-4.0625L11.2891-4.0625L12.5488-0.605469C12.7344-0.0683594 12.9883 0.126953 13.4961 0.126953C14.0137 0.126953 14.3457-0.185547 14.3457-0.673828C14.3457-0.839844 14.3164-0.986328 14.2383-1.20117L9.6582-13.3887C9.43359-13.9941 9.0332-14.2871 8.4082-14.2871C7.80273-14.2871 7.39258-13.9941 7.17773-13.3984L2.59766-1.19141C2.51953-0.976562 2.49023-0.830078 2.49023-0.664062C2.49023-0.175781 2.80273 0.126953 3.31055 0.126953ZM6.00586-5.53711L8.37891-12.1094L8.42773-12.1094L10.8008-5.53711Z"/>
  </g>
  <line id="" style="fill:none;stroke:#00AEEF;stroke-width:0.5;opacity:1.0;" x1="792.836" x2="792.836" y1="1919" y2="1933"/>
  <text style="stroke:none;fill:black;font-family:-apple-system,&quot;SF Pro Display&quot;,&quot;SF Pro Text&quot;,Helvetica,sans-serif;font-weight:bold;" transform="matrix(1 0 0 1 776 1953)">Margins</text>
  <text style="stroke:none;fill:black;font-family:-apple-system,&quot;SF Pro Display&quot;,&quot;SF Pro Text&quot;,Helvetica,sans-serif;" transform="matrix(1 0 0 1 776 1971)">Leading and trailing margins on the left and right side of each symbol</text>
  <text style="stroke:none;fill:black;font-family:-apple-system,&quot;SF Pro Display&quot;,&quot;SF Pro Text&quot;,Helvetica,sans-serif;" transform="matrix(1 0 0 1 776 1989)">can be adjusted by modifying the x-location of the margin guidelines.</text>
  <text style="stroke:none;fill:black;font-family:-apple-system,&quot;SF Pro Display&quot;,&quot;SF Pro Text&quot;,Helvetica,sans-serif;" transform="matrix(1 0 0 1 776 2007)">Modifications are automatically applied proportionally to all</text>
  <text style="stroke:none;fill:black;font-family:-apple-system,&quot;SF Pro Display&quot;,&quot;SF Pro Text&quot;,Helvetica,sans-serif;" transform="matrix(1 0 0 1 776 2025)">scales and weights.</text>
  <g id="" transform="matrix(1 0 0 1 1289 1933)">
   <path d="M2.8418 1.86523L4.54102 3.57422C5.40039 4.44336 6.38672 4.38477 7.31445 3.35938L17.4902-7.85156C17.7539-7.76367 18.0273-7.7832 18.3398-7.8418L19.4043-8.03711L20.0684-7.36328L20.0293-6.80664C19.9902-6.30859 20.1172-5.92773 20.6055-5.44922L21.3672-4.70703C21.8457-4.22852 22.4609-4.19922 22.9297-4.66797L25.8398-7.58789C26.3086-8.05664 26.2891-8.65234 25.8105-9.13086L25.0391-9.89258C24.5605-10.3711 24.1895-10.5273 23.7109-10.4883L23.1348-10.4395L22.4902-11.0742L22.7344-12.1973C22.8613-12.7637 22.7051-13.2031 22.1191-13.7891L19.9219-15.9766C16.582-19.2969 12.1484-19.2188 9.25781-16.3281C8.83789-15.918 8.80859-15.3418 9.04297-14.9512C9.27734-14.5898 9.73633-14.3555 10.3809-14.5215C11.8457-14.8633 13.3691-14.9219 14.7949-13.9844L14.209-12.5293C14.0137-12.0508 13.9844-11.6504 14.1113-11.2891L3.04688-0.898438C2.06055 0.0195312 1.98242 0.996094 2.8418 1.86523ZM10.752-15.957C13.1836-17.7344 16.4746-17.4316 18.7012-15.2051L21.1328-12.793C21.3672-12.5586 21.4062-12.373 21.3379-12.0312L21.0156-10.5469L22.5195-9.0625L23.5059-9.12109C23.7598-9.13086 23.8379-9.11133 24.0332-8.91602L24.6094-8.33984L22.168-5.89844L21.5918-6.47461C21.3965-6.66992 21.3672-6.74805 21.377-7.01172L21.4453-7.98828L19.9512-9.47266L18.4277-9.21875C18.1055-9.15039 17.959-9.17969 17.7148-9.41406L15.7129-11.416C15.459-11.6504 15.4297-11.8164 15.5859-12.1875L16.4648-14.2773C14.9023-15.7324 12.8711-16.3574 10.8398-15.7617C10.6836-15.7227 10.625-15.8496 10.752-15.957ZM5.27344 2.30469L4.10156 1.14258C3.63281 0.683594 3.74023 0.341797 4.14062-0.0195312L14.9512-10.1953L16.416-8.71094L6.42578 2.27539C6.07422 2.67578 5.74219 2.77344 5.27344 2.30469Z"/>
  </g>
  <text style="stroke:none;fill:black;font-family:-apple-system,&quot;SF Pro Display&quot;,&quot;SF Pro Text&quot;,Helvetica,sans-serif;font-weight:bold;" transform="matrix(1 0 0 1 1289 1953)">Exporting</text>
  <text style="stroke:none;fill:black;font-family:-apple-system,&quot;SF Pro Display&quot;,&quot;SF Pro Text&quot;,Helvetica,sans-serif;" transform="matrix(1 0 0 1 1289 1971)">Symbols should be outlined when exporting to ensure the</text>
  <text style="stroke:none;fill:black;font-family:-apple-system,&quot;SF Pro Display&quot;,&quot;SF Pro Text&quot;,Helvetica,sans-serif;" transform="matrix(1 0 0 1 1289 1989)">design is preserved when submitting to Xcode.</text>
  <text id="template-version" style="stroke:none;fill:black;font-family:-apple-system,&quot;SF Pro Display&quot;,&quot;SF Pro Text&quot;,Helvetica,sans-serif;text-anchor:end;" transform="matrix(1 0 0 1 3036 1933)">Template v.2.0</text>
  <text style="stroke:none;fill:black;font-family:-apple-system,&quot;SF Pro Display&quot;,&quot;SF Pro Text&quot;,Helvetica,sans-serif;text-anchor:end;" transform="matrix(1 0 0 1 3036 1951)">Requires Xcode 12 or greater</text>
  <text style="stroke:none;fill:black;font-family:-apple-system,&quot;SF Pro Display&quot;,&quot;SF Pro Text&quot;,Helvetica,sans-serif;text-anchor:end;" transform="matrix(1 0 0 1 3036 1969)">Generated from trash.fill</text>
  <text style="stroke:none;fill:black;font-family:-apple-system,&quot;SF Pro Display&quot;,&quot;SF Pro Text&quot;,Helvetica,sans-serif;text-anchor:end;" transform="matrix(1 0 0 1 3036 1987)">Typeset at 100 points</text>
  <text style="stroke:none;fill:black;font-family:-apple-system,&quot;SF Pro Display&quot;,&quot;SF Pro Text&quot;,Helvetica,sans-serif;" transform="matrix(1 0 0 1 263 726)">Small</text>
  <text style="stroke:none;fill:black;font-family:-apple-system,&quot;SF Pro Display&quot;,&quot;SF Pro Text&quot;,Helvetica,sans-serif;" transform="matrix(1 0 0 1 263 1156)">Medium</text>
  <text style="stroke:none;fill:black;font-family:-apple-system,&quot;SF Pro Display&quot;,&quot;SF Pro Text&quot;,Helvetica,sans-serif;" transform="matrix(1 0 0 1 263 1586)">Large</text>
 </g>
 <g id="Guides">
  <g id="H-reference" style="fill:#27AAE1;stroke:none;" transform="matrix(1 0 0 1 339 696)">
   <path d="M0.976562 0L3.66211 0L12.9883-24.4629L45.752-24.4629L55.127 0L57.7637 0L30.6152-70.459L28.125-70.459ZM29.3457-67.1387L29.4434-67.1387L44.873-26.709L13.8672-26.709Z"/>
  </g>
  <line id="Baseline-S" style="fill:none;stroke:#27AAE1;opacity:1;stroke-width:0.5;" x1="263" x2="3036" y1="696" y2="696"/>
  <line id="Capline-S" style="fill:none;stroke:#27AAE1;opacity:1;stroke-width:0.5;" x1="263" x2="3036" y1="625.541" y2="625.541"/>
  <g id="H-reference" style="fill:#27AAE1;stroke:none;" transform="matrix(1 0 0 1 339 1126)">
   <path d="M0.976562 0L3.66211 0L12.9883-24.4629L45.752-24.4629L55.127 0L57.7637 0L30.6152-70.459L28.125-70.459ZM29.3457-67.1387L29.4434-67.1387L44.873-26.709L13.8672-26.709Z"/>
  </g>
  <line id="Baseline-M" style="fill:none;stroke:#27AAE1;opacity:1;stroke-width:0.5;" x1="263" x2="3036" y1="1126" y2="1126"/>
  <line id="Capline-M" style="fill:none;stroke:#27AAE1;opacity:1;stroke-width:0.5;" x1="263" x2="3036" y1="1055.54" y2="1055.54"/>
  <g id="H-reference" style="fill:#27AAE1;stroke:none;" transform="matrix(1 0 0 1 339 1556)">
   <path d="M0.976562 0L3.66211 0L12.9883-24.4629L45.752-24.4629L55.127 0L57.7637 0L30.6152-70.459L28.125-70.459ZM29.3457-67.1387L29.4434-67.1387L44.873-26.709L13.8672-26.709Z"/>
  </g>
  <line id="Baseline-L" style="fill:none;stroke:#27AAE1;opacity:1;stroke-width:0.5;" x1="263" x2="3036" y1="1556" y2="1556"/>
  <line id="Capline-L" style="fill:none;stroke:#27AAE1;opacity:1;stroke-width:0.5;" x1="263" x2="3036" y1="1485.54" y2="1485.54"/>
  <line id="left-margin" style="fill:none;stroke:#00AEEF;stroke-width:0.5;opacity:1.0;" x1="1395.08" x2="1395.08" y1="1030.79" y2="1150.12"/>
  <line id="right-margin" style="fill:none;stroke:#00AEEF;stroke-width:0.5;opacity:1.0;" x1="1504.61" x2="1504.61" y1="1030.79" y2="1150.12"/>
 </g>
 <g id="Symbols">
  <g id="Black-L" transform="matrix(1 0 0 1 2857.69 1556)">
   <path d="M46.0938 30.6641L105.322 30.6641C116.553 30.6641 122.412 25.293 122.9 14.4531L126.758-73.1445L133.105-73.1445C138.086-73.1445 141.748-76.6113 141.748-81.5918C141.748-86.4746 138.086-89.8926 133.105-89.8926L108.301-89.8926L108.301-98.584C108.301-110.4 100.977-116.943 87.6465-116.943L63.7207-116.943C50.3906-116.943 43.0664-110.4 43.0664-98.584L43.0664-89.8926L18.3105-89.8926C13.3301-89.8926 9.66797-86.4746 9.66797-81.5918C9.66797-76.6113 13.3301-73.1445 18.3105-73.1445L24.707-73.1445L28.5156 14.4531C28.9551 25.293 34.8633 30.6641 46.0938 30.6641ZM61.8652-98.1445C61.8652-99.8535 62.9883-100.83 65.0879-100.83L86.2793-100.83C88.3789-100.83 89.5508-99.8535 89.5508-98.1445L89.5508-89.8926L61.8652-89.8926ZM54.6875 7.4707C51.3672 7.4707 48.9746 5.17578 48.877 1.80664L47.0703-59.7168C46.9727-63.1836 49.1699-65.4785 52.6855-65.4785C56.25-65.4785 58.5938-63.1836 58.6914-59.8145L60.498 1.66016C60.5957 5.12695 58.3496 7.4707 54.6875 7.4707ZM75.7324 7.4707C72.2656 7.4707 69.9219 5.22461 69.9219 1.85547L69.9219-59.8633C69.9219-63.2324 72.2656-65.4785 75.7324-65.4785C79.1504-65.4785 81.4941-63.2324 81.4941-59.8633L81.4941 1.85547C81.4941 5.22461 79.1504 7.4707 75.7324 7.4707ZM96.7285 7.4707C93.0664 7.4707 90.8203 5.12695 90.918 1.66016L92.7246-59.8145C92.8223-63.1836 95.166-65.4785 98.7305-65.4785C102.246-65.4785 104.443-63.1836 104.346-59.7168L102.539 1.80664C102.441 5.17578 100.049 7.4707 96.7285 7.4707Z"/>
  </g>
  <g id="Heavy-L" transform="matrix(1 0 0 1 2562.3 1556)">
   <path d="M44.8242 29.8828L104.004 29.8828C114.355 29.8828 119.971 24.707 120.459 14.6484L124.365-74.3164L131.592-74.3164C135.938-74.3164 139.16-77.3926 139.16-81.7383C139.16-85.9863 135.938-89.0625 131.592-89.0625L105.859-89.0625L105.859-98.0469C105.859-109.229 98.877-115.479 86.377-115.479L62.3535-115.479C49.9023-115.479 42.9199-109.229 42.9199-98.0469L42.9199-89.0625L17.2363-89.0625C12.9395-89.0625 9.66797-85.9863 9.66797-81.7383C9.66797-77.3926 12.9395-74.3164 17.2363-74.3164L24.4629-74.3164L28.418 14.6484C28.8086 24.707 34.4727 29.8828 44.8242 29.8828ZM59.5703-97.5586C59.5703-99.7559 60.9863-101.025 63.5254-101.025L85.2539-101.025C87.793-101.025 89.209-99.7559 89.209-97.5586L89.209-89.0625L59.5703-89.0625ZM53.7109 7.91016C50.6348 7.91016 48.5352 5.85938 48.4375 2.83203L46.582-60.6934C46.4844-63.7695 48.5352-65.8203 51.709-65.8203C54.834-65.8203 56.9824-63.8184 57.0801-60.7422L58.9355 2.73438C59.0332 5.81055 56.9824 7.91016 53.7109 7.91016ZM74.4141 7.91016C71.2891 7.91016 69.1406 5.9082 69.1406 2.83203L69.1406-60.7422C69.1406-63.8184 71.2891-65.8203 74.4141-65.8203C77.5391-65.8203 79.6387-63.8184 79.6387-60.7422L79.6387 2.83203C79.6387 5.9082 77.5391 7.91016 74.4141 7.91016ZM95.1172 7.91016C91.8457 7.91016 89.7949 5.81055 89.8926 2.73438L91.748-60.7422C91.7969-63.7695 93.9453-65.8203 97.1191-65.8203C100.293-65.8203 102.295-63.7695 102.246-60.6445L100.342 2.83203C100.293 5.85938 98.1445 7.91016 95.1172 7.91016Z"/>
  </g>
  <g id="Bold-L" transform="matrix(1 0 0 1 2267.03 1556)">
   <path d="M43.4082 29.0039L102.539 29.0039C111.914 29.0039 117.236 24.0723 117.676 14.8926L121.729-75.6348L129.883-75.6348C133.496-75.6348 136.23-78.2715 136.23-81.8848C136.23-85.4492 133.496-88.0859 129.883-88.0859L103.076-88.0859L103.076-97.4121C103.076-107.861 96.4844-113.867 84.9609-113.867L60.8398-113.867C49.3652-113.867 42.7246-107.861 42.7246-97.4121L42.7246-88.0859L16.0156-88.0859C12.4512-88.0859 9.66797-85.4492 9.66797-81.8848C9.66797-78.2715 12.4512-75.6348 16.0156-75.6348L24.2188-75.6348L28.2715 14.8926C28.6621 24.0723 34.0332 29.0039 43.4082 29.0039ZM56.9824-96.9727C56.9824-99.6094 58.7891-101.27 61.7676-101.27L84.0332-101.27C87.0605-101.27 88.8672-99.6094 88.8672-96.9727L88.8672-88.0859L56.9824-88.0859ZM52.5391 8.39844C49.9023 8.39844 47.998 6.64062 47.9492 3.95508L46.0449-61.7188C45.9473-64.4043 47.7539-66.2109 50.5371-66.2109C53.2715-66.2109 55.1758-64.4531 55.2246-61.7676L57.1777 3.90625C57.2266 6.54297 55.4199 8.39844 52.5391 8.39844ZM72.9492 8.39844C70.166 8.39844 68.3105 6.64062 68.3105 3.95508L68.3105-61.7676C68.3105-64.4531 70.166-66.2109 72.9492-66.2109C75.7324-66.2109 77.5879-64.4531 77.5879-61.7676L77.5879 3.95508C77.5879 6.64062 75.7324 8.39844 72.9492 8.39844ZM93.3105 8.44727C90.4785 8.44727 88.6719 6.5918 88.7207 3.90625L90.625-61.7676C90.7227-64.4531 92.627-66.2109 95.3613-66.2109C98.1445-66.2109 99.9023-64.4043 99.8535-61.7188L97.9492 3.95508C97.8516 6.64062 95.9961 8.44727 93.3105 8.44727Z"/>
  </g>
  <g id="Semibold-L" transform="matrix(1 0 0 1 1971.34 1556)">
   <path d="M42.3828 28.418L101.514 28.418C110.205 28.418 115.381 23.6328 115.771 15.0879L119.873-76.5137L128.711-76.5137C131.836-76.5137 134.229-78.9062 134.229-81.9824C134.229-85.0586 131.836-87.4023 128.711-87.4023L101.172-87.4023L101.172-97.0215C101.172-106.934 94.8242-112.793 83.9844-112.793L59.7656-112.793C48.9746-112.793 42.627-106.934 42.627-97.0215L42.627-87.4023L15.1367-87.4023C12.1094-87.4023 9.61914-85.0586 9.61914-81.9824C9.61914-78.8574 12.1094-76.5137 15.1367-76.5137L24.0234-76.5137L28.1738 15.0879C28.5645 23.6328 33.7402 28.418 42.3828 28.418ZM55.2246-96.5332C55.2246-99.5605 57.2266-101.416 60.5957-101.416L83.252-101.416C86.5723-101.416 88.623-99.5605 88.623-96.5332L88.623-87.4023L55.2246-87.4023ZM51.7578 8.74023C49.3652 8.74023 47.6562 7.17773 47.6074 4.73633L45.6543-62.4512C45.6055-64.8926 47.2168-66.5039 49.7559-66.5039C52.1973-66.5039 53.9551-64.8926 54.0039-62.5L55.957 4.6875C56.0059 7.08008 54.3457 8.74023 51.7578 8.74023ZM71.9727 8.74023C69.4336 8.74023 67.7246 7.12891 67.7246 4.73633L67.7246-62.5C67.7246-64.8926 69.4336-66.5039 71.9727-66.5039C74.4629-66.5039 76.1719-64.8926 76.1719-62.5L76.1719 4.73633C76.1719 7.12891 74.4629 8.74023 71.9727 8.74023ZM92.0898 8.78906C89.502 8.78906 87.8906 7.08008 87.9395 4.6875L89.8926-62.5C89.9414-64.8926 91.6504-66.4551 94.0918-66.4551C96.6309-66.4551 98.291-64.8438 98.2422-62.4023L96.2891 4.78516C96.1914 7.17773 94.5312 8.78906 92.0898 8.78906Z"/>
  </g>
  <g id="Medium-L" transform="matrix(1 0 0 1 1675.39 1556)">
   <path d="M41.6504 27.9785L100.732 27.9785C108.887 27.9785 113.965 23.291 114.307 15.2344L118.506-77.1973L127.832-77.1973C130.566-77.1973 132.715-79.3457 132.715-82.0801C132.715-84.8145 130.566-86.9141 127.832-86.9141L99.707-86.9141L99.707-96.6797C99.707-106.25 93.5547-111.963 83.252-111.963L58.9844-111.963C48.6816-111.963 42.5293-106.25 42.5293-96.6797L42.5293-86.9141L14.502-86.9141C11.8652-86.9141 9.61914-84.7656 9.61914-82.0801C9.61914-79.3457 11.8652-77.1973 14.502-77.1973L23.9258-77.1973L28.125 15.2344C28.4668 23.291 33.4961 27.9785 41.6504 27.9785ZM53.9062-96.1914C53.9062-99.4629 56.0547-101.514 59.668-101.514L82.6172-101.514C86.2305-101.514 88.4277-99.4629 88.4277-96.1914L88.4277-86.9141L53.9062-86.9141ZM51.1719 9.0332C48.9258 9.0332 47.4121 7.56836 47.3633 5.32227L45.3613-62.9883C45.3125-65.2344 46.8262-66.6992 49.1699-66.6992C51.416-66.6992 52.9785-65.2344 53.0273-63.0371L55.0293 5.32227C55.0781 7.4707 53.5645 9.0332 51.1719 9.0332ZM71.1914 9.0332C68.8477 9.0332 67.2852 7.51953 67.2852 5.32227L67.2852-62.9883C67.2852-65.1855 68.8477-66.6992 71.1914-66.6992C73.4863-66.6992 75.0977-65.1855 75.0977-62.9883L75.0977 5.32227C75.0977 7.51953 73.4863 9.0332 71.1914 9.0332ZM91.1621 9.0332C88.7695 9.0332 87.2559 7.51953 87.3047 5.32227L89.3066-63.0371C89.3555-65.2344 90.9668-66.6504 93.1641-66.6504C95.5078-66.6504 97.0215-65.1855 96.9727-62.9883L95.0195 5.37109C94.9707 7.56836 93.4082 9.0332 91.1621 9.0332Z"/>
  </g>
  <g id="Regular-L" transform="matrix(1 0 0 1 1379.68 1556)">
   <path d="M40.6738 27.3438L99.7559 27.3438C107.227 27.3438 112.109 22.8516 112.402 15.3809L116.699-78.125L126.66-78.125C128.955-78.125 130.713-79.9805 130.713-82.1777C130.713-84.4238 128.906-86.2793 126.66-86.2793L97.8516-86.2793L97.8516-96.2891C97.8516-105.322 91.9434-110.84 82.3242-110.84L57.9102-110.84C48.3398-110.84 42.4316-105.322 42.4316-96.2891L42.4316-86.2793L13.6719-86.2793C11.5234-86.2793 9.61914-84.375 9.61914-82.1777C9.61914-79.9316 11.5234-78.125 13.6719-78.125L23.7305-78.125L28.0273 15.3809C28.3691 22.8516 33.2031 27.3438 40.6738 27.3438ZM52.1484-95.8008C52.1484-99.4141 54.541-101.66 58.4473-101.66L81.8359-101.66C85.7422-101.66 88.1836-99.4141 88.1836-95.8008L88.1836-86.2793L52.1484-86.2793ZM50.4395 9.375C48.3887 9.375 47.0703 8.05664 47.0215 6.10352L44.9707-63.7207C44.9219-65.6738 46.3379-66.9434 48.3887-66.9434C50.3418-66.9434 51.7578-65.7227 51.8066-63.7695L53.8086 6.10352C53.8574 8.00781 52.5391 9.375 50.4395 9.375ZM70.2148 9.375C68.1152 9.375 66.6992 8.00781 66.6992 6.10352L66.6992-63.7207C66.6992-65.625 68.1152-66.9434 70.2148-66.9434C72.2656-66.9434 73.6816-65.625 73.6816-63.7207L73.6816 6.10352C73.6816 8.00781 72.2656 9.375 70.2148 9.375ZM89.9414 9.375C87.8418 9.375 86.4746 8.00781 86.5234 6.10352L88.5742-63.7207C88.623-65.6738 90.0391-66.9434 91.9434-66.9434C94.043-66.9434 95.4102-65.625 95.3613-63.6719L93.3594 6.15234C93.3105 8.10547 91.9434 9.375 89.9414 9.375Z"/>
  </g>
  <g id="Light-L" transform="matrix(1 0 0 1 1083.6 1556)">
   <path d="M40.625 27.7832L98.4863 27.7832C105.566 27.7832 110.645 23.0469 110.986 16.0645L115.625-79.3945L126.318-79.3945C128.076-79.3945 129.443-80.8105 129.443-82.5195C129.443-84.2773 128.027-85.6934 126.318-85.6934L96.4844-85.6934L96.4844-96.2402C96.4844-104.639 91.0156-109.766 81.9824-109.766L56.9824-109.766C47.998-109.766 42.5781-104.639 42.5781-96.2402L42.5781-85.6934L12.793-85.6934C11.084-85.6934 9.61914-84.2285 9.61914-82.5195C9.61914-80.7617 11.084-79.3945 12.793-79.3945L23.5352-79.3945L28.1738 16.0645C28.5156 23.0469 33.5449 27.7832 40.625 27.7832ZM49.9512-95.9473C49.9512-100.146 52.7344-102.686 57.2754-102.686L81.7383-102.686C86.3281-102.686 89.1113-100.146 89.1113-95.9473L89.1113-85.6934L49.9512-85.6934ZM50.0488 9.76562C48.4375 9.76562 47.3633 8.74023 47.3145 7.22656L45.166-64.2578C45.1172-65.8203 46.2402-66.8457 47.8516-66.8457C49.3652-66.8457 50.5371-65.8691 50.5859-64.3555L52.7344 7.17773C52.7832 8.64258 51.709 9.76562 50.0488 9.76562ZM69.5801 9.76562C67.9688 9.76562 66.7969 8.69141 66.7969 7.17773L66.7969-64.2578C66.7969-65.7715 67.9688-66.8457 69.5801-66.8457C71.1914-66.8457 72.3145-65.7715 72.3145-64.2578L72.3145 7.17773C72.3145 8.69141 71.1914 9.76562 69.5801 9.76562ZM89.0625 9.81445C87.4023 9.81445 86.3281 8.69141 86.377 7.22656L88.5254-64.3066C88.5742-65.8203 89.6973-66.7969 91.2109-66.7969C92.8711-66.7969 93.9453-65.7715 93.9453-64.209L91.748 7.27539C91.748 8.78906 90.6738 9.81445 89.0625 9.81445Z"/>
  </g>
  <g id="Thin-L" transform="matrix(1 0 0 1 787.745 1556)">
   <path d="M40.5762 28.3691L96.875 28.3691C103.369 28.3691 108.74 23.291 109.082 16.9434L114.16-81.0547L125.83-81.0547C126.953-81.0547 127.783-81.9336 127.783-83.0078C127.783-84.1309 126.904-84.9121 125.83-84.9121L94.6777-84.9121L94.6777-96.2402C94.6777-103.76 89.8438-108.301 81.5918-108.301L55.7617-108.301C47.5586-108.301 42.7246-103.76 42.7246-96.2402L42.7246-84.9121L11.5723-84.9121C10.5469-84.9121 9.57031-84.0332 9.57031-83.0078C9.57031-81.8848 10.5469-81.0547 11.5723-81.0547L23.291-81.0547L28.418 16.9434C28.7598 23.291 34.0332 28.3691 40.5762 28.3691ZM47.0703-96.1914C47.0703-101.123 50.293-104.004 55.6641-104.004L81.6406-104.004C87.1582-104.004 90.332-101.123 90.332-96.1914L90.332-84.9121L47.0703-84.9121ZM49.5117 10.3516C48.4375 10.3516 47.7539 9.61914 47.7539 8.64258L45.4102-64.9902C45.3613-66.0645 46.1426-66.748 47.168-66.748C48.0957-66.748 48.9258-66.1133 48.9258-65.1367L51.3184 8.59375C51.3184 9.52148 50.6348 10.3516 49.5117 10.3516ZM68.75 10.3516C67.7246 10.3516 66.9434 9.61914 66.9434 8.59375L66.9434-64.9902C66.9434-66.0156 67.7246-66.748 68.75-66.748C69.7754-66.748 70.5566-66.0156 70.5566-64.9902L70.5566 8.59375C70.5566 9.61914 69.7754 10.3516 68.75 10.3516ZM87.8906 10.4004C86.7676 10.4004 86.1328 9.61914 86.1328 8.64258L88.4766-65.0879C88.4766-66.0156 89.3066-66.6504 90.2344-66.6504C91.3086-66.6504 92.041-66.0156 92.041-64.9414L89.6484 8.74023C89.6484 9.66797 89.0137 10.4004 87.8906 10.4004Z"/>
  </g>
  <g id="Ultralight-L" transform="matrix(1 0 0 1 491.474 1556)">
   <path d="M40.5273 28.6621L96.0449 28.6621C102.246 28.6621 107.764 23.4375 108.105 17.3828L113.428-81.9336L125.586-81.9336C126.416-81.9336 126.904-82.5195 126.904-83.252C126.904-84.0332 126.318-84.5215 125.586-84.5215L93.75-84.5215L93.75-96.2402C93.75-103.32 89.209-107.52 81.3965-107.52L55.127-107.52C47.3633-107.52 42.8223-103.32 42.8223-96.2402L42.8223-84.5215L10.9863-84.5215C10.2539-84.5215 9.57031-83.9355 9.57031-83.252C9.57031-82.4219 10.2539-81.9336 10.9863-81.9336L23.1934-81.9336L28.5156 17.3828C28.8574 23.4375 34.3262 28.6621 40.5273 28.6621ZM45.6055-96.2891C45.6055-101.611 49.0234-104.688 54.8828-104.688L81.5918-104.688C87.5488-104.688 90.9668-101.611 90.9668-96.2891L90.9668-84.5215L45.6055-84.5215ZM49.2676 10.6445C48.4375 10.6445 47.9492 10.0586 47.9492 9.375L45.5078-65.3809C45.5078-66.2109 46.0449-66.6992 46.7773-66.6992C47.4609-66.6992 48.0957-66.2109 48.0957-65.5273L50.5371 9.32617C50.5371 9.96094 50.0977 10.6445 49.2676 10.6445ZM68.3105 10.6445C67.5781 10.6445 67.041 10.0586 67.041 9.32617L67.041-65.3809C67.041-66.1133 67.5781-66.6992 68.3105-66.6992C69.043-66.6992 69.6289-66.1133 69.6289-65.3809L69.6289 9.32617C69.6289 10.0586 69.043 10.6445 68.3105 10.6445ZM87.3047 10.6934C86.4746 10.6934 85.9863 10.0586 85.9863 9.375L88.4766-65.4297C88.4766-66.1133 89.1113-66.6016 89.7461-66.6016C90.4785-66.6016 91.0645-66.1133 91.0645-65.2832L88.5742 9.47266C88.623 10.1562 88.1348 10.6934 87.3047 10.6934Z"/>
  </g>
  <g id="Black-M" transform="matrix(1 0 0 1 2873.34 1126)">
   <path d="M37.4023 17.1387L82.7148 17.1387C92.3828 17.1387 97.3633 12.5488 97.8027 3.32031L100.781-63.7207L104.98-63.7207C109.424-63.7207 112.646-66.6992 112.646-71.1426C112.646-75.4883 109.424-78.4668 104.98-78.4668L86.5234-78.4668L86.5234-85.0586C86.5234-94.7754 80.6641-99.8535 69.4336-99.8535L50.7324-99.8535C39.502-99.8535 33.5938-94.7754 33.5938-85.0586L33.5938-78.4668L15.1367-78.4668C10.6934-78.4668 7.4707-75.4883 7.4707-71.1426C7.4707-66.6992 10.6934-63.7207 15.1367-63.7207L19.3359-63.7207L22.3145 3.32031C22.7051 12.5488 27.7344 17.1387 37.4023 17.1387ZM49.8047-84.8145C49.8047-85.8398 50.4883-86.3281 51.9043-86.3281L68.2129-86.3281C69.6289-86.3281 70.3125-85.8398 70.3125-84.8145L70.3125-78.4668L49.8047-78.4668ZM43.5059-2.49023C40.7227-2.49023 38.6719-4.44336 38.623-7.32422L37.207-53.2715C37.1582-56.2012 38.9648-58.1543 41.8945-58.1543C44.9219-58.1543 46.9238-56.2012 46.9727-53.3203L48.4375-7.4707C48.4863-4.54102 46.582-2.49023 43.5059-2.49023ZM60.0586-2.49023C57.1777-2.49023 55.2246-4.39453 55.2246-7.27539L55.2246-53.3691C55.2246-56.25 57.1777-58.1543 60.0586-58.1543C62.9395-58.1543 64.8926-56.25 64.8926-53.3691L64.8926-7.27539C64.8926-4.39453 62.9395-2.49023 60.0586-2.49023ZM76.6113-2.49023C73.5352-2.49023 71.6309-4.54102 71.7285-7.4707L73.1445-53.3203C73.1934-56.2012 75.1953-58.1543 78.2227-58.1543C81.1523-58.1543 83.0078-56.2012 82.9102-53.2715L81.4941-7.32422C81.4453-4.44336 79.4434-2.49023 76.6113-2.49023Z"/>
  </g>
  <g id="Heavy-M" transform="matrix(1 0 0 1 2577.88 1126)">
   <path d="M36.0352 16.1621L81.5918 16.1621C90.4297 16.1621 95.0684 11.8652 95.459 3.36914L98.4863-64.6973L103.418-64.6973C107.324-64.6973 110.156-67.334 110.156-71.2402C110.156-75 107.324-77.6855 103.418-77.6855L84.1797-77.6855L84.1797-84.4727C84.1797-93.6035 78.5645-98.584 68.1152-98.584L49.4629-98.584C39.0625-98.584 33.3984-93.6035 33.3984-84.4727L33.3984-77.6855L14.209-77.6855C10.3027-77.6855 7.4707-75 7.4707-71.2402C7.4707-67.334 10.3027-64.6973 14.209-64.6973L19.1406-64.6973L22.168 3.36914C22.5098 11.8652 27.1973 16.1621 36.0352 16.1621ZM47.9004-84.1797C47.9004-85.5469 48.7793-86.2793 50.4883-86.2793L67.0898-86.2793C68.7988-86.2793 69.7266-85.5469 69.7266-84.1797L69.7266-77.6855L47.9004-77.6855ZM42.5293-2.14844C39.9414-2.14844 38.1348-3.90625 38.0859-6.49414L36.6211-54.1504C36.5723-56.7871 38.2324-58.5449 40.918-58.5449C43.6523-58.5449 45.459-56.7871 45.5566-54.1992L46.9727-6.5918C47.0215-3.95508 45.3125-2.14844 42.5293-2.14844ZM58.7891-2.14844C56.1523-2.14844 54.3945-3.85742 54.3945-6.44531L54.3945-54.248C54.3945-56.8359 56.1523-58.5449 58.7891-58.5449C61.4746-58.5449 63.2324-56.8359 63.2324-54.248L63.2324-6.44531C63.2324-3.85742 61.4746-2.14844 58.7891-2.14844ZM75.0977-2.14844C72.3145-2.14844 70.5566-3.95508 70.6543-6.5918L72.0703-54.1992C72.168-56.7871 73.9746-58.5449 76.709-58.5449C79.3945-58.5449 81.0547-56.7871 81.0059-54.1504L79.541-6.49414C79.4922-3.90625 77.6855-2.14844 75.0977-2.14844Z"/>
  </g>
  <g id="Bold-M" transform="matrix(1 0 0 1 2282.58 1126)">
   <path d="M34.4727 15.0879L80.3711 15.0879C88.2324 15.0879 92.5293 11.1328 92.8711 3.4668L95.9473-65.7227L101.66-65.7227C104.932-65.7227 107.324-68.0664 107.324-71.2891C107.324-74.4629 104.932-76.7578 101.66-76.7578L81.543-76.7578L81.543-83.7891C81.543-92.334 76.2207-97.168 66.6992-97.168L48.0957-97.168C38.5742-97.168 33.2031-92.334 33.2031-83.7891L33.2031-76.7578L13.1348-76.7578C9.91211-76.7578 7.4707-74.4629 7.4707-71.2891C7.4707-68.0176 9.91211-65.7227 13.1348-65.7227L18.8965-65.7227L21.9727 3.4668C22.2656 11.1328 26.6113 15.0879 34.4727 15.0879ZM45.752-83.4473C45.752-85.2051 46.9238-86.2305 48.9258-86.2305L65.8203-86.2305C67.8711-86.2305 69.043-85.2051 69.043-83.4473L69.043-76.7578L45.752-76.7578ZM41.4062-1.70898C39.1113-1.70898 37.5-3.27148 37.4512-5.56641L35.9863-55.127C35.9375-57.4707 37.4512-59.0332 39.8438-59.0332C42.2363-59.0332 43.8477-57.4707 43.8965-55.1758L45.3613-5.66406C45.4102-3.32031 43.8965-1.70898 41.4062-1.70898ZM57.4219-1.70898C55.0293-1.70898 53.418-3.22266 53.418-5.56641L53.418-55.1758C53.418-57.4707 55.0293-59.0332 57.4219-59.0332C59.7656-59.0332 61.377-57.4707 61.377-55.1758L61.377-5.56641C61.377-3.22266 59.7656-1.70898 57.4219-1.70898ZM73.3887-1.70898C70.9473-1.70898 69.3848-3.32031 69.4336-5.61523L70.8984-55.1758C70.9473-57.4707 72.5586-58.9844 74.9512-58.9844C77.3438-58.9844 78.9062-57.4707 78.8086-55.127L77.3926-5.56641C77.3438-3.27148 75.6836-1.70898 73.3887-1.70898Z"/>
  </g>
  <g id="Semibold-M" transform="matrix(1 0 0 1 1986.82 1126)">
   <path d="M33.3984 14.3555L79.4922 14.3555C86.7188 14.3555 90.7715 10.5957 91.0645 3.51562L94.1895-66.4551L100.488-66.4551C103.271-66.4551 105.42-68.5547 105.42-71.3379C105.42-74.0723 103.271-76.1719 100.488-76.1719L79.7363-76.1719L79.7363-83.3496C79.7363-91.4551 74.6094-96.1914 65.7227-96.1914L47.1191-96.1914C38.2324-96.1914 33.0566-91.4551 33.0566-83.3496L33.0566-76.1719L12.4023-76.1719C9.66797-76.1719 7.4707-74.0723 7.4707-71.3379C7.4707-68.5547 9.66797-66.4551 12.4023-66.4551L18.75-66.4551L21.8262 3.51562C22.1191 10.5957 26.2207 14.3555 33.3984 14.3555ZM44.2383-82.959C44.2383-84.9609 45.6055-86.2305 47.8516-86.2305L64.9902-86.2305C67.2363-86.2305 68.6035-84.9609 68.6035-82.959L68.6035-76.1719L44.2383-76.1719ZM40.625-1.41602C38.5254-1.41602 37.0605-2.83203 37.0117-4.93164L35.5469-55.8105C35.498-57.9102 36.9141-59.3262 39.1113-59.3262C41.2598-59.3262 42.7734-57.959 42.8223-55.8594L44.2871-4.98047C44.3359-2.88086 42.8711-1.41602 40.625-1.41602ZM56.4453-1.41602C54.248-1.41602 52.7832-2.83203 52.7832-4.93164L52.7832-55.8594C52.7832-57.9102 54.248-59.3262 56.4453-59.3262C58.6426-59.3262 60.1074-57.9102 60.1074-55.8594L60.1074-4.93164C60.1074-2.83203 58.6426-1.41602 56.4453-1.41602ZM72.2656-1.41602C69.9707-1.41602 68.5547-2.88086 68.6035-4.98047L70.0684-55.8105C70.1172-57.9102 71.6309-59.3262 73.7793-59.3262C75.9766-59.3262 77.3926-57.9102 77.3438-55.8105L75.8789-4.93164C75.8301-2.83203 74.3652-1.41602 72.2656-1.41602Z"/>
  </g>
  <g id="Medium-M" transform="matrix(1 0 0 1 1690.84 1126)">
   <path d="M32.6172 13.7695L78.8574 13.7695C85.5469 13.7695 89.4531 10.2051 89.7461 3.56445L92.8223-66.9922L99.5605-66.9922C102.051-66.9922 103.955-68.9453 103.955-71.3867C103.955-73.8281 102.002-75.6836 99.5605-75.6836L78.3691-75.6836L78.3691-83.0078C78.3691-90.8203 73.3398-95.459 64.9414-95.459L46.3867-95.459C37.9883-95.459 32.959-90.8203 32.959-83.0078L32.959-75.6836L11.8652-75.6836C9.42383-75.6836 7.4707-73.7793 7.4707-71.3867C7.4707-68.8965 9.42383-66.9922 11.8652-66.9922L18.6523-66.9922L21.7773 3.56445C22.0215 10.2051 25.9277 13.7695 32.6172 13.7695ZM43.1152-82.5684C43.1152-84.7656 44.6289-86.1816 47.0703-86.1816L64.3066-86.1816C66.748-86.1816 68.2617-84.7656 68.2617-82.5684L68.2617-75.6836L43.1152-75.6836ZM40.0391-1.2207C38.0859-1.2207 36.7188-2.49023 36.6699-4.44336L35.2051-56.2988C35.1562-58.252 36.5234-59.5703 38.5742-59.5703C40.5273-59.5703 41.8945-58.3008 41.9434-56.3477L43.4082-4.49219C43.5059-2.53906 42.1387-1.2207 40.0391-1.2207ZM55.7129-1.2207C53.6621-1.2207 52.2949-2.49023 52.2949-4.44336L52.2949-56.3477C52.2949-58.252 53.6621-59.5703 55.7129-59.5703C57.7637-59.5703 59.1797-58.252 59.1797-56.3477L59.1797-4.44336C59.1797-2.49023 57.7637-1.2207 55.7129-1.2207ZM71.3867-1.17188C69.2871-1.17188 67.9199-2.53906 68.0176-4.44336L69.4824-56.3477C69.5312-58.3008 70.8984-59.5703 72.8516-59.5703C74.9023-59.5703 76.2695-58.252 76.2207-56.2988L74.7559-4.44336C74.707-2.49023 73.3398-1.17188 71.3867-1.17188Z"/>
  </g>
  <g id="Regular-M" transform="matrix(1 0 0 1 1395.08 1126)">
   <path d="M31.543 13.0371L77.9785 13.0371C84.0332 13.0371 87.6953 9.66797 87.9395 3.61328L91.0645-67.7246L98.3887-67.7246C100.391-67.7246 102.051-69.4336 102.051-71.4355C102.051-73.4375 100.391-75.0977 98.3887-75.0977L76.6113-75.0977L76.6113-82.5684C76.6113-89.9414 71.7773-94.4824 63.9648-94.4824L45.459-94.4824C37.6465-94.4824 32.8125-89.9414 32.8125-82.5684L32.8125-75.0977L11.1328-75.0977C9.17969-75.0977 7.4707-73.4375 7.4707-71.4355C7.4707-69.3848 9.17969-67.7246 11.1328-67.7246L18.5059-67.7246L21.6309 3.61328C21.875 9.66797 25.5371 13.0371 31.543 13.0371ZM41.6504-82.0801C41.6504-84.5215 43.3594-86.1816 45.9961-86.1816L63.4766-86.1816C66.1133-86.1816 67.8223-84.5215 67.8223-82.0801L67.8223-75.0977L41.6504-75.0977ZM39.3066-0.927734C37.5488-0.927734 36.3281-2.05078 36.2793-3.80859L34.7656-56.9824C34.7168-58.6914 35.9375-59.8633 37.8418-59.8633C39.5508-59.8633 40.8203-58.7402 40.8691-57.0312L42.334-3.80859C42.3828-2.09961 41.1621-0.927734 39.3066-0.927734ZM54.7852-0.927734C52.9297-0.927734 51.6113-2.09961 51.6113-3.80859L51.6113-56.9824C51.6113-58.6914 52.9297-59.8633 54.7852-59.8633C56.6406-59.8633 57.9102-58.6914 57.9102-56.9824L57.9102-3.80859C57.9102-2.09961 56.6406-0.927734 54.7852-0.927734ZM70.2148-0.927734C68.3594-0.927734 67.1387-2.09961 67.1875-3.80859L68.6523-56.9824C68.7012-58.7402 69.9707-59.8633 71.6797-59.8633C73.5352-59.8633 74.8047-58.6914 74.7559-56.9824L73.2422-3.80859C73.1934-2.05078 71.9727-0.927734 70.2148-0.927734Z"/>
  </g>
  <g id="Light-M" transform="matrix(1 0 0 1 1098.96 1126)">
   <path d="M31.4941 13.4277L76.9043 13.4277C82.5684 13.4277 86.4258 9.86328 86.6699 4.19922L90.0879-68.8965L98.0469-68.8965C99.6582-68.8965 100.879-70.166 100.879-71.7285C100.879-73.3398 99.6094-74.6094 98.0469-74.6094L75.3906-74.6094L75.3906-82.5195C75.3906-89.3555 70.9473-93.457 63.6719-93.457L44.5801-93.457C37.3535-93.457 32.959-89.3555 32.959-82.5195L32.959-74.6094L10.3027-74.6094C8.78906-74.6094 7.4707-73.291 7.4707-71.7285C7.4707-70.166 8.78906-68.8965 10.3027-68.8965L18.3594-68.8965L21.7773 4.19922C22.0215 9.86328 25.8301 13.4277 31.4941 13.4277ZM39.6973-82.2266C39.6973-85.2051 41.6992-87.0605 44.9219-87.0605L63.3789-87.0605C66.6504-87.0605 68.6523-85.2051 68.6523-82.2266L68.6523-74.6094L39.6973-74.6094ZM38.9648-0.537109C37.5488-0.537109 36.5723-1.46484 36.5234-2.83203L34.9121-57.4707C34.9121-58.8867 35.8887-59.8145 37.3535-59.8145C38.7207-59.8145 39.6973-58.8867 39.7461-57.5195L41.3574-2.83203C41.4062-1.51367 40.4297-0.537109 38.9648-0.537109ZM54.1992-0.537109C52.7344-0.537109 51.709-1.46484 51.709-2.83203L51.709-57.4707C51.709-58.8379 52.7344-59.8145 54.1992-59.8145C55.6641-59.8145 56.6895-58.8379 56.6895-57.4707L56.6895-2.83203C56.6895-1.46484 55.6641-0.537109 54.1992-0.537109ZM69.4336-0.488281C67.9199-0.488281 66.9922-1.46484 66.9922-2.83203L68.6035-57.5195C68.6523-58.8867 69.6777-59.7656 71.0449-59.7656C72.5098-59.7656 73.4863-58.8379 73.4375-57.4707L71.8262-2.7832C71.7773-1.41602 70.8496-0.488281 69.4336-0.488281Z"/>
  </g>
  <g id="Thin-M" transform="matrix(1 0 0 1 803.004 1126)">
   <path d="M31.4453 13.916L75.4395 13.916C80.5664 13.916 84.7168 10.0586 84.9609 4.98047L88.8184-70.3613L97.6074-70.3613C98.6328-70.3613 99.3652-71.1914 99.3652-72.168C99.3652-73.1445 98.584-73.9258 97.6074-73.9258L73.7305-73.9258L73.7305-82.5195C73.7305-88.5254 69.873-92.1387 63.3301-92.1387L43.457-92.1387C36.9629-92.1387 33.1055-88.5254 33.1055-82.5195L33.1055-73.9258L9.22852-73.9258C8.30078-73.9258 7.42188-73.0957 7.42188-72.168C7.42188-71.1426 8.30078-70.3613 9.22852-70.3613L18.1152-70.3613L21.9727 4.98047C22.2168 10.0586 26.2695 13.916 31.4453 13.916ZM37.1094-82.4219C37.1094-86.084 39.502-88.2324 43.5059-88.2324L63.3301-88.2324C67.3828-88.2324 69.7266-86.084 69.7266-82.4219L69.7266-73.9258L37.1094-73.9258ZM38.4766-0.0488281C37.5488-0.0488281 36.9141-0.683594 36.9141-1.51367L35.1074-58.1543C35.1074-59.082 35.791-59.668 36.7188-59.668C37.5488-59.668 38.2812-59.082 38.2812-58.252L40.0879-1.5625C40.0879-0.732422 39.4531-0.0488281 38.4766-0.0488281ZM53.4668-0.0488281C52.5391-0.0488281 51.8555-0.683594 51.8555-1.5625L51.8555-58.1543C51.8555-59.0332 52.5391-59.668 53.4668-59.668C54.3945-59.668 55.0781-59.0332 55.0781-58.1543L55.0781-1.5625C55.0781-0.683594 54.3945-0.0488281 53.4668-0.0488281ZM68.3594 0C67.3828 0 66.7969-0.683594 66.7969-1.51367L68.6035-58.2031C68.6035-59.0332 69.2871-59.6191 70.166-59.6191C71.0938-59.6191 71.7285-59.0332 71.7285-58.1055L69.9707-1.46484C69.9219-0.634766 69.3359 0 68.3594 0Z"/>
  </g>
  <g id="Ultralight-M" transform="matrix(1 0 0 1 506.684 1126)">
   <path d="M31.3965 14.1602L74.6582 14.1602C79.5898 14.1602 83.8379 10.2051 84.082 5.41992L88.1348-71.1426L97.4121-71.1426C98.1445-71.1426 98.584-71.6797 98.584-72.3633C98.584-73.0957 98.0469-73.584 97.4121-73.584L72.9004-73.584L72.9004-82.5195C72.9004-88.1348 69.3359-91.5039 63.1348-91.5039L42.9199-91.5039C36.7676-91.5039 33.1543-88.1348 33.1543-82.5195L33.1543-73.584L8.69141-73.584C8.00781-73.584 7.42188-72.998 7.42188-72.3633C7.42188-71.6309 8.00781-71.1426 8.69141-71.1426L18.0176-71.1426L22.0703 5.41992C22.3145 10.2051 26.5137 14.1602 31.3965 14.1602ZM35.791-82.5195C35.791-86.5234 38.3789-88.8672 42.7734-88.8672L63.2812-88.8672C67.7246-88.8672 70.3125-86.5234 70.3125-82.5195L70.3125-73.584L35.791-73.584ZM38.2812 0.244141C37.5488 0.244141 37.1094-0.244141 37.1094-0.878906L35.2539-58.4961C35.2539-59.1797 35.6934-59.6191 36.377-59.6191C36.9629-59.6191 37.5488-59.1797 37.5488-58.5938L39.4043-0.927734C39.4043-0.341797 38.9648 0.244141 38.2812 0.244141ZM53.0762 0.244141C52.3926 0.244141 51.9531-0.244141 51.9531-0.927734L51.9531-58.4961C51.9531-59.1309 52.3926-59.6191 53.0762-59.6191C53.7598-59.6191 54.248-59.1309 54.248-58.4961L54.248-0.927734C54.248-0.244141 53.7598 0.244141 53.0762 0.244141ZM67.8223 0.292969C67.0898 0.292969 66.6992-0.244141 66.6992-0.878906L68.5547-58.5449C68.5547-59.1309 69.0918-59.5703 69.7266-59.5703C70.3613-59.5703 70.8496-59.1309 70.8496-58.3984L68.9941-0.78125C68.9941-0.195312 68.5547 0.292969 67.8223 0.292969Z"/>
  </g>
  <g id="Black-S" transform="matrix(1 0 0 1 2886.43 696)">
   <path d="M29.1992 5.71289L64.7461 5.71289C72.2656 5.71289 76.123 2.14844 76.4648-5.0293L78.8086-57.6172L82.1289-57.6172C85.5957-57.6172 88.0859-59.9121 88.0859-63.3789C88.0859-66.748 85.5957-69.043 82.1289-69.043L67.627-69.043L67.627-74.2188C67.627-81.7871 63.0371-85.791 54.2969-85.791L39.6484-85.791C30.9082-85.791 26.3184-81.7871 26.3184-74.2188L26.3184-69.043L11.8164-69.043C8.34961-69.043 5.85938-66.748 5.85938-63.3789C5.85938-59.9121 8.34961-57.6172 11.8164-57.6172L15.1367-57.6172L17.4805-5.0293C17.7734 2.14844 21.6797 5.71289 29.1992 5.71289ZM38.916-74.0234C38.916-74.8535 39.4531-75.2441 40.5762-75.2441L53.3691-75.2441C54.4922-75.2441 55.0293-74.8535 55.0293-74.0234L55.0293-69.043L38.916-69.043ZM34.0332-9.57031C31.8359-9.57031 30.2734-11.084 30.2246-13.3301L29.1016-49.4141C29.0527-51.709 30.4688-53.2227 32.7637-53.2227C35.1074-53.2227 36.6699-51.709 36.7188-49.4629L37.8418-13.4277C37.8906-11.1328 36.4258-9.57031 34.0332-9.57031ZM46.9727-9.57031C44.7266-9.57031 43.2129-11.0352 43.2129-13.2812L43.2129-49.5117C43.2129-51.7578 44.7266-53.2227 46.9727-53.2227C49.2188-53.2227 50.7324-51.7578 50.7324-49.5117L50.7324-13.2812C50.7324-11.0352 49.2188-9.57031 46.9727-9.57031ZM59.9121-9.57031C57.5195-9.57031 56.0547-11.1328 56.1035-13.4277L57.2266-49.4629C57.2754-51.709 58.8379-53.2227 61.1816-53.2227C63.4766-53.2227 64.8926-51.709 64.8438-49.4141L63.7207-13.3301C63.6719-11.084 62.1094-9.57031 59.9121-9.57031Z"/>
  </g>
  <g id="Heavy-S" transform="matrix(1 0 0 1 2590.62 696)">
   <path d="M28.125 4.93164L64.0137 4.93164C70.8984 4.93164 74.5117 1.61133 74.8047-5.0293L77.1484-58.2031L80.957-58.2031C84.0332-58.2031 86.2793-60.3027 86.2793-63.3789C86.2793-66.4062 84.0332-68.5059 80.957-68.5059L65.9668-68.5059L65.9668-73.7793C65.9668-81.0059 61.5234-84.9121 53.3203-84.9121L38.7695-84.9121C30.6152-84.9121 26.1719-81.0059 26.1719-73.7793L26.1719-68.5059L11.1816-68.5059C8.10547-68.5059 5.85938-66.4062 5.85938-63.3789C5.85938-60.3027 8.10547-58.2031 11.1816-58.2031L14.9902-58.2031L17.334-5.0293C17.627 1.61133 21.2402 4.93164 28.125 4.93164ZM37.6465-73.4863C37.6465-74.5605 38.3301-75.0977 39.6484-75.0977L52.4902-75.0977C53.8086-75.0977 54.4922-74.5605 54.4922-73.4863L54.4922-68.5059L37.6465-68.5059ZM33.3008-9.32617C31.25-9.32617 29.834-10.6934 29.7852-12.793L28.6621-50.0488C28.6133-52.1484 29.9316-53.5645 32.0801-53.5645C34.2285-53.5645 35.6934-52.1484 35.7422-50.0488L36.8652-12.8906C36.9141-10.7422 35.5469-9.32617 33.3008-9.32617ZM46.0938-9.32617C43.9941-9.32617 42.5293-10.6934 42.5293-12.7441L42.5293-50.0977C42.5293-52.1973 43.9941-53.5645 46.0938-53.5645C48.1934-53.5645 49.6094-52.1973 49.6094-50.0977L49.6094-12.7441C49.6094-10.6934 48.1934-9.32617 46.0938-9.32617ZM58.8379-9.32617C56.6406-9.32617 55.2734-10.7422 55.3223-12.8906L56.3965-50.0488C56.4453-52.1484 57.9102-53.5645 60.0586-53.5645C62.207-53.5645 63.5742-52.1484 63.5254-50.0488L62.4023-12.793C62.3535-10.6934 60.8887-9.32617 58.8379-9.32617Z"/>
  </g>
  <g id="Bold-S" transform="matrix(1 0 0 1 2294.91 696)">
   <path d="M26.9531 4.05273L63.1836 4.05273C69.4336 4.05273 72.7051 1.02539 72.998-5.07812L75.293-58.8867L79.6875-58.8867C82.3242-58.8867 84.2773-60.791 84.2773-63.4277C84.2773-65.9668 82.3242-67.8711 79.6875-67.8711L64.1113-67.8711L64.1113-73.2422C64.1113-80.0781 59.8145-83.9355 52.2949-83.9355L37.8418-83.9355C30.2734-83.9355 25.9766-80.0781 25.9766-73.2422L25.9766-67.8711L10.4492-67.8711C7.86133-67.8711 5.85938-65.9668 5.85938-63.4277C5.85938-60.791 7.86133-58.8867 10.4492-58.8867L14.8438-58.8867L17.1875-5.07812C17.4316 1.02539 20.752 4.05273 26.9531 4.05273ZM36.2305-72.9492C36.2305-74.2188 37.1094-74.9512 38.5742-74.9512L51.5625-74.9512C53.0273-74.9512 53.8574-74.2188 53.8574-72.9492L53.8574-67.8711L36.2305-67.8711ZM32.4707-9.0332C30.6152-9.0332 29.2969-10.3027 29.248-12.207L28.125-50.7324C28.0762-52.6367 29.3457-53.9062 31.2988-53.9062C33.252-53.9062 34.5703-52.6367 34.6191-50.7324L35.7422-12.2559C35.791-10.3516 34.5215-9.0332 32.4707-9.0332ZM45.0684-9.0332C43.1152-9.0332 41.7969-10.3027 41.7969-12.1582L41.7969-50.7812C41.7969-52.6367 43.1152-53.9062 45.0684-53.9062C47.0215-53.9062 48.3398-52.6367 48.3398-50.7812L48.3398-12.1582C48.3398-10.3027 47.0215-9.0332 45.0684-9.0332ZM57.666-9.0332C55.6152-9.0332 54.3457-10.3516 54.3945-12.2559L55.5176-50.7324C55.5664-52.6367 56.8848-53.9062 58.8379-53.9062C60.791-53.9062 62.0605-52.6367 62.0117-50.7324L60.8887-12.207C60.8398-10.3027 59.5215-9.0332 57.666-9.0332Z"/>
  </g>
  <g id="Semibold-S" transform="matrix(1 0 0 1 1998.88 696)">
   <path d="M26.1719 3.4668L62.6465 3.4668C68.3594 3.4668 71.4844 0.585938 71.7285-5.07812L74.0234-59.3262L78.8086-59.3262C81.1035-59.3262 82.9102-61.084 82.9102-63.4277C82.9102-65.7227 81.1035-67.4805 78.8086-67.4805L62.8418-67.4805L62.8418-72.9004C62.8418-79.4434 58.6426-83.3008 51.5625-83.3008L37.1582-83.3008C30.0293-83.3008 25.8789-79.4434 25.8789-72.9004L25.8789-67.4805L9.96094-67.4805C7.66602-67.4805 5.85938-65.7227 5.85938-63.4277C5.85938-61.084 7.66602-59.3262 9.96094-59.3262L14.7461-59.3262L17.041-5.07812C17.2852 0.585938 20.4102 3.4668 26.1719 3.4668ZM35.3027-72.5586C35.3027-73.9746 36.2305-74.8535 37.8418-74.8535L50.8789-74.8535C52.4902-74.8535 53.4668-73.9746 53.4668-72.5586L53.4668-67.4805L35.3027-67.4805ZM31.9336-8.88672C30.1758-8.88672 28.9551-10.0098 28.9062-11.8164L27.7832-51.2207C27.7344-52.9785 28.9062-54.1504 30.7617-54.1504C32.5684-54.1504 33.8379-52.9785 33.8867-51.2207L34.9609-11.8164C35.0098-10.0586 33.8379-8.88672 31.9336-8.88672ZM44.3848-8.88672C42.5293-8.88672 41.3086-10.0586 41.3086-11.7676L41.3086-51.2207C41.3086-52.9785 42.5293-54.1504 44.3848-54.1504C46.2402-54.1504 47.4609-52.9785 47.4609-51.2207L47.4609-11.7676C47.4609-10.0586 46.2402-8.88672 44.3848-8.88672ZM56.8359-8.83789C54.9316-8.83789 53.7598-10.0586 53.8086-11.8164L54.8828-51.2207C54.9316-52.9785 56.2012-54.1504 57.959-54.1504C59.8145-54.1504 61.0352-52.9785 60.9863-51.2207L59.8633-11.8164C59.8145-10.0098 58.5938-8.83789 56.8359-8.83789Z"/>
  </g>
  <g id="Medium-S" transform="matrix(1 0 0 1 1702.71 696)">
   <path d="M25.5371 2.97852L62.207 2.97852C67.5781 2.97852 70.5566 0.292969 70.8008-5.07812L73.0957-59.668L78.125-59.668C80.2246-59.668 81.8359-61.3281 81.8359-63.4277C81.8359-65.4785 80.2246-67.1387 78.125-67.1387L61.8652-67.1387L61.8652-72.6562C61.8652-79.0039 57.7637-82.7637 50.9766-82.7637L36.6699-82.7637C29.8828-82.7637 25.7812-79.0039 25.7812-72.6562L25.7812-67.1387L9.57031-67.1387C7.51953-67.1387 5.85938-65.4785 5.85938-63.4277C5.85938-61.3281 7.51953-59.668 9.57031-59.668L14.6973-59.668L16.9922-5.07812C17.1875 0.292969 20.166 2.97852 25.5371 2.97852ZM34.5215-72.2168C34.5215-73.7793 35.5957-74.8047 37.2559-74.8047L50.3906-74.8047C52.0996-74.8047 53.125-73.7793 53.125-72.2168L53.125-67.1387L34.5215-67.1387ZM31.4941-8.74023C29.834-8.74023 28.6621-9.81445 28.6133-11.4746L27.5391-51.5625C27.4902-53.2227 28.6133-54.3457 30.3711-54.3457C32.0801-54.3457 33.252-53.2715 33.3008-51.5625L34.375-11.5234C34.4238-9.86328 33.3008-8.74023 31.4941-8.74023ZM43.8477-8.74023C42.0898-8.74023 40.918-9.81445 40.918-11.4746L40.918-51.5625C40.918-53.2227 42.0898-54.3457 43.8477-54.3457C45.6055-54.3457 46.8262-53.2227 46.8262-51.5625L46.8262-11.4746C46.8262-9.81445 45.6055-8.74023 43.8477-8.74023ZM56.2012-8.74023C54.4434-8.74023 53.2715-9.86328 53.3203-11.5234L54.4434-51.5625C54.4922-53.2715 55.6641-54.3457 57.3242-54.3457C59.082-54.3457 60.2539-53.2227 60.2051-51.5625L59.082-11.4746C59.0332-9.81445 57.8613-8.74023 56.2012-8.74023Z"/>
  </g>
  <g id="Regular-S" transform="matrix(1 0 0 1 1406.68 696)">
   <path d="M24.7559 2.39258L61.6699 2.39258C66.5527 2.39258 69.3359-0.0976562 69.5312-5.07812L71.8262-60.1562L77.2461-60.1562C79.0527-60.1562 80.4688-61.6211 80.4688-63.4277C80.4688-65.2344 79.0527-66.6992 77.2461-66.6992L60.5957-66.6992L60.5957-72.3145C60.5957-78.3691 56.5918-82.1289 50.2441-82.1289L35.9863-82.1289C29.6387-82.1289 25.6348-78.3691 25.6348-72.3145L25.6348-66.6992L9.08203-66.6992C7.37305-66.6992 5.85938-65.2344 5.85938-63.4277C5.85938-61.6211 7.37305-60.1562 9.08203-60.1562L14.5996-60.1562L16.8945-5.07812C17.0898-0.0976562 19.8242 2.39258 24.7559 2.39258ZM33.5938-71.8262C33.5938-73.5352 34.7656-74.707 36.5723-74.707L49.7559-74.707C51.5625-74.707 52.7344-73.5352 52.7344-71.8262L52.7344-66.6992L33.5938-66.6992ZM30.957-8.54492C29.3945-8.54492 28.3203-9.52148 28.2715-11.084L27.1973-52.0508C27.1484-53.5645 28.2227-54.5898 29.8828-54.5898C31.3965-54.5898 32.5195-53.5645 32.5684-52.0508L33.6426-11.084C33.6914-9.57031 32.6172-8.54492 30.957-8.54492ZM43.1641-8.54492C41.5527-8.54492 40.3809-9.57031 40.3809-11.084L40.3809-52.0508C40.3809-53.5156 41.5527-54.5898 43.1641-54.5898C44.8242-54.5898 45.9473-53.5156 45.9473-52.0508L45.9473-11.084C45.9473-9.57031 44.8242-8.54492 43.1641-8.54492ZM55.4199-8.54492C53.7598-8.54492 52.6855-9.57031 52.7344-11.084L53.8086-52.0508C53.8574-53.5645 54.9316-54.5898 56.4941-54.5898C58.1543-54.5898 59.2285-53.5156 59.1797-52.0508L58.1055-11.084C58.0566-9.52148 56.9336-8.54492 55.4199-8.54492Z"/>
  </g>
  <g id="Light-S" transform="matrix(1 0 0 1 1110.48 696)">
   <path d="M24.707 2.73438L60.6445 2.73438C65.2344 2.73438 68.2129 0.0488281 68.4082-4.54102L70.9473-61.1328L76.9531-61.1328C78.3691-61.1328 79.4922-62.3047 79.4922-63.7207C79.4922-65.1367 78.3203-66.2598 76.9531-66.2598L59.5215-66.2598L59.5215-72.3145C59.5215-77.832 55.9082-81.25 50-81.25L35.2539-81.25C29.3945-81.25 25.7812-77.832 25.7812-72.3145L25.7812-66.2598L8.39844-66.2598C7.03125-66.2598 5.85938-65.0879 5.85938-63.7207C5.85938-62.3047 7.03125-61.1328 8.39844-61.1328L14.4531-61.1328L16.9922-4.54102C17.1875 0.0488281 20.1172 2.73438 24.707 2.73438ZM31.8359-71.9727C31.8359-74.1211 33.3008-75.4883 35.5957-75.4883L49.707-75.4883C52.002-75.4883 53.4668-74.1211 53.4668-71.9727L53.4668-66.2598L31.8359-66.2598ZM30.6641-8.20312C29.3945-8.20312 28.5645-8.98438 28.5156-10.2051L27.2949-52.4902C27.2949-53.7109 28.125-54.4922 29.4434-54.4922C30.6641-54.4922 31.543-53.7109 31.543-52.4902L32.7637-10.2539C32.8125-9.0332 31.9824-8.20312 30.6641-8.20312ZM42.6758-8.20312C41.4062-8.20312 40.4785-9.0332 40.4785-10.2539L40.4785-52.4902C40.4785-53.6621 41.4062-54.4922 42.6758-54.4922C43.9941-54.4922 44.873-53.6621 44.873-52.4902L44.873-10.2539C44.873-9.0332 43.9941-8.20312 42.6758-8.20312ZM54.6875-8.20312C53.3691-8.20312 52.5391-9.0332 52.5879-10.2051L53.7598-52.4902C53.8086-53.7109 54.6875-54.4922 55.9082-54.4922C57.1777-54.4922 58.0566-53.6621 58.0566-52.4414L56.8359-10.2051C56.7871-8.98438 55.957-8.20312 54.6875-8.20312Z"/>
  </g>
  <g id="Thin-S" transform="matrix(1 0 0 1 814.43 696)">
   <path d="M24.6582 3.17383L59.375 3.17383C63.5254 3.17383 66.6992 0.195312 66.8945-3.85742L69.8242-62.5L76.5625-62.5C77.4902-62.5 78.125-63.1836 78.125-64.0625C78.125-64.9902 77.4414-65.6738 76.5625-65.6738L58.1055-65.6738L58.1055-72.2656C58.1055-77.1484 54.9316-80.0781 49.6582-80.0781L34.2773-80.0781C29.0527-80.0781 25.8789-77.1484 25.8789-72.2656L25.8789-65.6738L7.42188-65.6738C6.5918-65.6738 5.81055-64.9414 5.81055-64.0625C5.81055-63.1836 6.5918-62.5 7.42188-62.5L14.2578-62.5L17.1875-3.85742C17.3828 0.195312 20.5078 3.17383 24.6582 3.17383ZM29.5898-72.168C29.5898-74.9023 31.3477-76.5137 34.3262-76.5137L49.6094-76.5137C52.6367-76.5137 54.4434-74.9023 54.4434-72.168L54.4434-65.6738L29.5898-65.6738ZM30.2246-7.76367C29.3945-7.76367 28.8574-8.30078 28.8574-9.08203L27.4902-53.0273C27.4902-53.8574 28.0273-54.3945 28.8574-54.3945C29.6387-54.3945 30.2734-53.9062 30.2734-53.125L31.6406-9.13086C31.6406-8.34961 31.1035-7.76367 30.2246-7.76367ZM42.041-7.76367C41.2109-7.76367 40.625-8.30078 40.625-9.13086L40.625-53.0273C40.625-53.8574 41.2109-54.3945 42.041-54.3945C42.8711-54.3945 43.457-53.8574 43.457-53.0273L43.457-9.13086C43.457-8.30078 42.8711-7.76367 42.041-7.76367ZM53.7598-7.71484C52.8809-7.71484 52.3438-8.30078 52.3926-9.08203L53.7598-53.0762C53.7598-53.8574 54.3457-54.3945 55.127-54.3945C55.957-54.3945 56.543-53.8574 56.543-53.0273L55.1758-9.0332C55.127-8.25195 54.5898-7.71484 53.7598-7.71484Z"/>
  </g>
  <g id="Ultralight-S" transform="matrix(1 0 0 1 518.085 696)">
   <path d="M24.6094 3.41797L58.6914 3.41797C62.5977 3.41797 65.918 0.341797 66.1133-3.51562L69.2383-63.1836L76.3672-63.1836C77.002-63.1836 77.4414-63.6719 77.4414-64.2578C77.4414-64.8926 76.9531-65.332 76.3672-65.332L57.3242-65.332L57.3242-72.2656C57.3242-76.8066 54.4434-79.4922 49.5117-79.4922L33.7402-79.4922C28.8574-79.4922 25.9766-76.8066 25.9766-72.2656L25.9766-65.332L6.93359-65.332C6.34766-65.332 5.81055-64.8438 5.81055-64.2578C5.81055-63.623 6.34766-63.1836 6.93359-63.1836L14.1113-63.1836L17.2852-3.51562C17.4805 0.341797 20.7031 3.41797 24.6094 3.41797ZM28.418-72.2656C28.418-75.293 30.3711-77.0508 33.6914-77.0508L49.5605-77.0508C52.9785-77.0508 54.9316-75.293 54.9316-72.2656L54.9316-65.332L28.418-65.332ZM30.0293-7.51953C29.3945-7.51953 29.0039-7.95898 29.0039-8.49609L27.5879-53.3691C27.5879-54.0039 27.9785-54.3457 28.5645-54.3457C29.1016-54.3457 29.5898-54.0039 29.5898-53.4668L31.0547-8.54492C31.0547-8.00781 30.6641-7.51953 30.0293-7.51953ZM41.6992-7.51953C41.0645-7.51953 40.6738-7.95898 40.6738-8.54492L40.6738-53.3691C40.6738-53.9551 41.0645-54.3457 41.6992-54.3457C42.2852-54.3457 42.6758-53.9551 42.6758-53.3691L42.6758-8.54492C42.6758-7.95898 42.2852-7.51953 41.6992-7.51953ZM53.2715-7.4707C52.6367-7.4707 52.2461-7.95898 52.2461-8.49609L53.7109-53.418C53.7109-53.9551 54.1992-54.2969 54.7363-54.2969C55.3223-54.2969 55.7617-53.9551 55.7617-53.3203L54.2969-8.44727C54.2969-7.91016 53.9062-7.4707 53.2715-7.4707Z"/>
  </g>
 </g>
</svg>
